<?xml version="1.0" encoding="utf-8"?>
<!-- Generator: Adobe Illustrator 17.1.0, SVG Export Plug-In . SVG Version: 6.00 Build 0)  -->
<!DOCTYPE svg PUBLIC "-//W3C//DTD SVG 1.1//EN" "http://www.w3.org/Graphics/SVG/1.1/DTD/svg11.dtd">
<svg version="1.1" id="Layer_2" xmlns="http://www.w3.org/2000/svg" xmlns:xlink="http://www.w3.org/1999/xlink" x="0px" y="0px"
	 viewBox="0 0 491.7 636.9" enable-background="new 0 0 491.7 636.9" xml:space="preserve">
<g>
	<path fill="#C2B59B" d="M151.8,440.8c13.8,0,24.6,5.2,24.6,11.9c0,1.6-0.7,3.3-1.8,4.3c-1.9,2-5.4,3.9-7.7,4.4l-7.7,1.5v0.1
		l8.9,1.9c2.9,0.8,6,2.6,8,4.7c1.2,1.2,1.8,3,1.8,4.8c0,3.5-2,6.4-6,8.7c-3.9,2.2-10.5,3.8-16.3,3.8h-39.5v-0.8h1.6l7.1-4.3v-35.8
		l-7.2-4.5H116v-0.8H151.8 M139.8,462.5h12.8c5.9,0,8.6-3.3,8.6-10.2c0-3.4-0.9-6.2-2.6-7.8c-1.8-1.8-4.5-2.5-8.7-2.5h-10.1V462.5
		 M139.8,485.9h13.1c2.6,0,4.7-0.7,6-2.1c1.8-1.9,2.8-5.1,2.6-9c-0.3-8-3.2-11.1-10.2-11.1h-11.5V485.9 M151.8,439.8H116
		c-0.6,0-1,0.4-1,1v0.8c0,0.6,0.4,1,1,1h1.3l6.5,4v34.7l-6.3,3.9h-1.3c-0.6,0-1,0.4-1,1v0.8c0,0.6,0.4,1,1,1h39.5
		c6,0,12.7-1.6,16.8-3.9c4.3-2.4,6.5-5.7,6.5-9.5c0-2.1-0.8-4.1-2.1-5.5c-2.1-2.2-5.3-4.1-8.5-5c0,0,0,0-0.1,0l-4.4-0.9l3.2-0.6
		c2.6-0.5,6.2-2.6,8.3-4.7c1.3-1.3,2.1-3.3,2.1-5C177.3,445.3,166.3,439.8,151.8,439.8L151.8,439.8z M140.8,443h9.1
		c4,0,6.4,0.7,8,2.2c1.4,1.4,2.3,4,2.3,7.1c0,6.4-2.3,9.2-7.6,9.2h-11.8V443L140.8,443z M140.8,464.7h10.5c6.5,0,8.9,2.7,9.2,10.2
		c0.2,3.5-0.7,6.5-2.3,8.2c-1.1,1.2-3,1.8-5.2,1.8h-12.1V464.7L140.8,464.7z"/>
</g>
<g>
	<path fill="#C2B59B" d="M239.3,440.8v17h-0.7v-1.2L224.4,442h-17v20.3h7.5l8.9-9.2v-2.6h0.8v23.8h-0.7v-3.6l-8.8-7.1h-7.7v22.3
		h17.1l14.8-16.2l0.1-1.5h0.6l-0.9,18.9h-55.5v-0.8h1.7l7.2-4.5v-35.7l-7.4-4.5h-1.7v-0.8H239.3 M240,468.2L240,468.2 M239.3,439.8
		h-55.9c-0.6,0-1,0.4-1,1v0.8c0,0.6,0.4,1,1,1h1.4l6.7,4v34.6l-6.5,4h-1.4c-0.6,0-1,0.4-1,1v0.8c0,0.6,0.4,1,1,1h55.5
		c0.5,0,1-0.4,1-0.9l0.9-18.8c0,0,0-0.1,0-0.1c0-0.6-0.4-1-1-1h0h-0.6c-0.5,0-0.9,0.4-1,0.9l-0.1,1.2L224,484.9h-15.7v-20.3h6.3
		l8.2,6.6v3.1c0,0.6,0.4,1,1,1h0.7c0.6,0,1-0.4,1-1v-23.8c0-0.6-0.4-1-1-1h-0.8c-0.6,0-1,0.4-1,1v2.2l-8.3,8.6h-6V443H224l13.6,13.9
		v0.8c0,0.6,0.4,1,1,1h0.7c0.6,0,1-0.4,1-1v-17C240.3,440.2,239.8,439.8,239.3,439.8L239.3,439.8z"/>
</g>
<g>
	<path fill="#C2B59B" d="M301.5,440.8v17h-0.7v-1.2L286.6,442h-17v20.3h7.5l8.9-9.2v-2.6h0.8v23.8h-0.7v-3.6l-8.8-7.1h-7.7v22.3
		h17.1l14.8-16.2l0.1-1.5h0.6l-0.9,18.9h-55.5v-0.8h1.7l7.2-4.5v-35.7l-7.4-4.5h-1.7v-0.8H301.5 M302.2,468.2L302.2,468.2
		 M301.5,439.8h-55.9c-0.6,0-1,0.4-1,1v0.8c0,0.6,0.4,1,1,1h1.4l6.7,4v34.6l-6.5,4h-1.4c-0.6,0-1,0.4-1,1v0.8c0,0.6,0.4,1,1,1h55.5
		c0.5,0,1-0.4,1-0.9l0.9-18.8c0,0,0-0.1,0-0.1c0-0.6-0.4-1-1-1h0h-0.6c-0.5,0-0.9,0.4-1,0.9l-0.1,1.2l-14.3,15.6h-15.7v-20.3h6.3
		l8.2,6.6v3.1c0,0.6,0.4,1,1,1h0.7c0.6,0,1-0.4,1-1v-23.8c0-0.6-0.4-1-1-1H286c-0.6,0-1,0.4-1,1v2.2l-8.3,8.6h-6V443h15.5l13.6,13.9
		v0.8c0,0.6,0.4,1,1,1h0.7c0.6,0,1-0.4,1-1v-17C302.5,440.2,302,439.8,301.5,439.8L301.5,439.8z"/>
</g>
<g>
	<path fill="#C2B59B" d="M347.9,440.8c6.9,0,14,1.5,17.7,3.7c3.9,2.2,6.1,5.5,6.1,9c0,7.5-9.4,11.7-26.5,11.9v0.1
		c1.1,0.5,1.6,0.7,2.4,0.9c2.8,0.7,6.2,1.2,9.1,1.2h4.3l8.3,14.1l7.4,4.5h2v0.8h-23.3l-12.8-21.6h-10.3v16.3l7.4,4.5h1.5v0.8h-32.9
		v-0.8h1.6l7.3-4.5V446l-7.3-4.4h-1.5v-0.8H347.9 M332.5,464.2h11.4c8.7,0,12.8-3.6,12.8-11.1c0-7.5-4.4-11.2-13.4-11.2h-10.9V464.2
		 M347.9,439.8h-39.3c-0.6,0-1,0.4-1,1v0.8c0,0.6,0.4,1,1,1h1.2l6.5,4v34.6l-6.5,4.1h-1.3c-0.6,0-1,0.4-1,1v0.8c0,0.6,0.4,1,1,1
		h32.9c0.6,0,1-0.4,1-1v-0.8c0-0.6-0.4-1-1-1h-1.2l-6.7-4v-14.8h8.7l12.5,21.1c0.2,0.3,0.5,0.5,0.9,0.5h23.3c0.6,0,1-0.4,1-1v-0.8
		c0-0.6-0.4-1-1-1h-1.7l-6.9-4.3l-8.1-13.9c-0.2-0.3-0.5-0.5-0.9-0.5h-4.3c-1.7,0-3.7-0.2-5.6-0.5c13.9-1.1,21.5-5.5,21.5-12.7
		c0-3.8-2.4-7.4-6.6-9.8C362.2,441.3,354.9,439.8,347.9,439.8L347.9,439.8z M333.5,442.9h9.9c8.4,0,12.4,3.2,12.4,10.2
		c0,7-3.6,10.1-11.8,10.1h-10.4V442.9L333.5,442.9z"/>
</g>
<g>
	<path fill="#C2B59B" d="M194.6,392.2v4.6h-0.2v-0.4l-3.3-3.7H190v8.6l1.6,1h0.5v0.2h-7.5v-0.2h0.4l1.7-1v-8.6h-1.1l-3.3,3.6v0.4
		H182v-4.6H194.6 M194.6,391.2H182c-0.6,0-1,0.4-1,1v4.6c0,0.6,0.4,1,1,1h0.2c0.5,0,1-0.4,1-1l2.4-2.7v6.7l-1,0.6h-0.1
		c-0.6,0-1,0.4-1,1v0.2c0,0.6,0.4,1,1,1h7.5c0.6,0,1-0.4,1-1v-0.2c0-0.6-0.4-1-1-1h-0.2l-0.9-0.5v-6.7l2.4,2.7c0,0.5,0.5,1,1,1h0.2
		c0.6,0,1-0.4,1-1v-4.6C195.6,391.7,195.2,391.2,194.6,391.2L194.6,391.2z"/>
</g>
<g>
	<path fill="#C2B59B" d="M207.2,392c2.4,0,4.5,0.8,5.9,2.2c0.9,0.9,1.4,2,1.4,3.1c0,3-3.2,5.4-7.3,5.4c-3.9,0-7.2-2.4-7.2-5.3
		C200,394.5,203.4,392,207.2,392 M207.4,402.4c1.3,0,2.2-0.4,2.7-1.3c0.2-0.3,0.3-0.7,0.4-1.1c0.1-0.6,0.2-1.7,0.2-3
		c0-3.5-0.9-4.7-3.3-4.7c-1.5,0-2.4,0.4-2.9,1.3c-0.2,0.3-0.3,0.7-0.4,1.1c-0.1,0.7-0.2,1.9-0.2,3.1c0,0.8,0.1,1.7,0.2,2.2
		c0.2,0.7,0.5,1.3,0.9,1.6C205.5,402.1,206.3,402.4,207.4,402.4 M207.2,391c-4.3,0-8.1,3-8.1,6.4c0,3.4,3.8,6.3,8.2,6.3
		c4.6,0,8.3-2.9,8.3-6.4c0-1.4-0.6-2.7-1.7-3.8C212.2,391.9,209.9,391,207.2,391L207.2,391z M207.4,401.4c-0.8,0-1.4-0.1-1.7-0.4
		c-0.3-0.2-0.5-0.6-0.6-1.1c-0.1-0.4-0.2-1.3-0.2-2c0-1.2,0.1-2.3,0.2-2.9c0.1-0.3,0.2-0.6,0.3-0.8c0.2-0.4,0.6-0.7,2-0.7
		c1.5,0,2.3,0.2,2.3,3.7c0,1.2-0.1,2.3-0.2,2.8c-0.1,0.3-0.2,0.6-0.3,0.7C209,400.9,208.6,401.4,207.4,401.4L207.4,401.4z"/>
</g>
<g>
	<path fill="#C2B59B" d="M233.8,392.2v0.2h-0.4l-1.6,2.4v3.5c0,2.7-2,4.4-5.4,4.4c-2.1,0-3.8-0.6-4.9-1.7c-0.7-0.8-1.1-1.6-1.1-2.9
		v-4.8l-1.6-1h-0.3v-0.2h7.4v0.2h-0.4l-1.6,1v6c0,1.8,1.2,2.8,3.2,2.8c2.6,0,4.4-1.6,4.4-3.9v-3.5l-1.6-2.5h-0.5v-0.2H233.8
		 M233.8,391.2h-4.4c-0.6,0-1,0.4-1,1v0.2c0,0.5,0.4,1,0.9,1l1.2,1.8v3.2c0,1.7-1.4,2.9-3.4,2.9c-1,0-2.2-0.3-2.2-1.8v-5.4l0.9-0.5
		h0.1c0.6,0,1-0.4,1-1v-0.2c0-0.6-0.4-1-1-1h-7.4c-0.6,0-1,0.4-1,1v0.2c0,0.6,0.4,1,1,1h0.1l0.9,0.6v4.2c0,1.5,0.4,2.6,1.3,3.6
		c1.3,1.3,3.2,2,5.6,2c3.9,0,6.4-2.1,6.4-5.4v-3.2l1.1-1.7c0.5-0.1,0.9-0.5,0.9-1v-0.2C234.8,391.7,234.4,391.2,233.8,391.2
		L233.8,391.2z"/>
</g>
<g>
	<path fill="#C2B59B" d="M248.4,392.2c1.5,0,3.1,0.3,4,0.8c0.9,0.5,1.4,1.2,1.4,2c0,1.7-2.1,2.6-5.9,2.7v0c0.2,0.1,0.3,0.2,0.5,0.2
		c0.6,0.2,1.4,0.3,2,0.3h1l1.9,3.2l1.7,1h0.4v0.2h-5.2l-2.9-4.8H245v3.7l1.7,1h0.3v0.2h-7.4v-0.2h0.4l1.6-1v-8l-1.6-1h-0.3v-0.2
		H248.4 M245,397.2h2.5c1.9,0,2.9-0.5,2.9-2.2c0-1.7-1-2.2-3-2.2H245V397.2 M248.4,391.2h-8.8c-0.6,0-1,0.4-1,1v0.2c0,0.6,0.4,1,1,1
		h0.1l0.9,0.5v6.9l-0.9,0.6h-0.1c-0.6,0-1,0.4-1,1v0.2c0,0.6,0.4,1,1,1h7.4c0.6,0,1-0.4,1-1v-0.2c0-0.6-0.4-1-1-1h-0.1l-0.9-0.6
		v-2.1h0.7l2.6,4.3c0.2,0.3,0.5,0.5,0.9,0.5h5.2c0.6,0,1-0.4,1-1v-0.2c0-0.6-0.4-1-1-1h-0.2l-1.2-0.7l-1.6-2.7
		c2-0.8,2.3-2.1,2.3-2.9c0-1.1-0.7-2.2-1.9-2.9C251.9,391.6,250.1,391.2,248.4,391.2L248.4,391.2z M246,393.8h1.4c2,0,2,0.5,2,1.2
		c0,0.7,0,1.2-1.9,1.2H246V393.8L246,393.8z"/>
</g>
<g>
	<path fill="#C2B59B" d="M283.4,392.2c3.7,0,6.5,2.2,6.5,5.3c0,3-2.8,5.1-6.8,5.1h-8v-0.2h0.4l1.6-1v-8l-1.7-1H275v-0.2H283.4
		 M280.4,402h2.5c2.4,0,3.4-1.2,3.4-4.4c0-2.1-0.3-3.1-1.1-3.9c-0.6-0.6-1.2-0.8-2.5-0.8h-2.3V402 M283.4,391.2H275
		c-0.6,0-1,0.4-1,1v0.2c0,0.6,0.4,1,1,1h0.1l0.9,0.6v6.9l-0.9,0.5h-0.1c-0.6,0-1,0.4-1,1v0.2c0,0.6,0.4,1,1,1h8
		c4.6,0,7.8-2.5,7.8-6.1C291,393.9,287.7,391.2,283.4,391.2L283.4,391.2z M281.4,393.8h1.3c1.2,0,1.5,0.2,1.7,0.5
		c0.6,0.6,0.9,1.3,0.9,3.3c0,3.2-1,3.4-2.4,3.4h-1.5V393.8L281.4,393.8z"/>
</g>
<g>
	<path fill="#C2B59B" d="M308,392.2v3.8h-0.2v-0.3l-3.2-2.9h-3.8v4.2h1.7l2-2.1v-0.6h0.2v5.3h-0.2v-0.8l-2-1.6h-1.7v4.7h3.8l3.3-3.4
		l0-0.3h0.1l-0.2,4.2h-12.4v-0.2h0.4l1.6-1v-8l-1.7-1h-0.4v-0.2H308 M308.1,398.3L308.1,398.3 M308,391.2h-12.5c-0.6,0-1,0.4-1,1
		v0.2c0,0.6,0.4,1,1,1h0.1l0.9,0.6v6.9l-0.9,0.6h-0.1c-0.6,0-1,0.4-1,1v0.2c0,0.6,0.4,1,1,1h12.4c0.5,0,1-0.4,1-0.9l0.2-4.1
		c0,0,0-0.1,0-0.1c0-0.6-0.4-1-1-1h0H308c-0.5,0-0.9,0.4-1,0.9l-1.3,1.3v-4.4l1.1,1.1c0.1,0.5,0.5,0.8,1,0.8h0.2c0.6,0,1-0.4,1-1
		v-3.8C309,391.7,308.5,391.2,308,391.2L308,391.2z M301.8,393.8h1.8c-0.1,0.2-0.2,0.4-0.2,0.6v0.2l-1.4,1.5h-0.2V393.8L301.8,393.8
		z M301.8,398.3h0.4l1.3,1.1v0.3c0,0.6,0.4,1,1,1h0l-0.3,0.3h-2.4V398.3L301.8,398.3z"/>
</g>
<line fill="none" stroke="#C2B59B" stroke-linecap="round" stroke-linejoin="round" stroke-miterlimit="10" x1="115.5" y1="487.6" x2="119.2" y2="491.3"/>
<line fill="none" stroke="#C2B59B" stroke-linecap="round" stroke-linejoin="round" stroke-miterlimit="10" x1="119.6" y1="487.6" x2="123.2" y2="491.3"/>
<line fill="none" stroke="#C2B59B" stroke-linecap="round" stroke-linejoin="round" stroke-miterlimit="10" x1="123.6" y1="487.6" x2="127.3" y2="491.3"/>
<line fill="none" stroke="#C2B59B" stroke-linecap="round" stroke-linejoin="round" stroke-miterlimit="10" x1="127.3" y1="487.6" x2="130.9" y2="491.3"/>
<line fill="none" stroke="#C2B59B" stroke-linecap="round" stroke-linejoin="round" stroke-miterlimit="10" x1="130.9" y1="487.6" x2="134.6" y2="491.3"/>
<line fill="none" stroke="#C2B59B" stroke-linecap="round" stroke-linejoin="round" stroke-miterlimit="10" x1="134.6" y1="487.6" x2="138.3" y2="491.3"/>
<line fill="none" stroke="#C2B59B" stroke-linecap="round" stroke-linejoin="round" stroke-miterlimit="10" x1="138.3" y1="487.6" x2="141.9" y2="491.3"/>
<line fill="none" stroke="#C2B59B" stroke-linecap="round" stroke-linejoin="round" stroke-miterlimit="10" x1="141.9" y1="487.6" x2="145.6" y2="491.3"/>
<line fill="none" stroke="#C2B59B" stroke-linecap="round" stroke-linejoin="round" stroke-miterlimit="10" x1="145.6" y1="487.6" x2="149.2" y2="491.3"/>
<line fill="none" stroke="#C2B59B" stroke-linecap="round" stroke-linejoin="round" stroke-miterlimit="10" x1="149.2" y1="487.6" x2="152.9" y2="491.3"/>
<line fill="none" stroke="#C2B59B" stroke-linecap="round" stroke-linejoin="round" stroke-miterlimit="10" x1="183.4" y1="487.6" x2="187" y2="491.3"/>
<line fill="none" stroke="#C2B59B" stroke-linecap="round" stroke-linejoin="round" stroke-miterlimit="10" x1="187.4" y1="487.6" x2="191.1" y2="491.3"/>
<line fill="none" stroke="#C2B59B" stroke-linecap="round" stroke-linejoin="round" stroke-miterlimit="10" x1="191.4" y1="487.6" x2="195.1" y2="491.3"/>
<line fill="none" stroke="#C2B59B" stroke-linecap="round" stroke-linejoin="round" stroke-miterlimit="10" x1="195.1" y1="487.6" x2="198.8" y2="491.3"/>
<line fill="none" stroke="#C2B59B" stroke-linecap="round" stroke-linejoin="round" stroke-miterlimit="10" x1="198.8" y1="487.6" x2="202.4" y2="491.3"/>
<line fill="none" stroke="#C2B59B" stroke-linecap="round" stroke-linejoin="round" stroke-miterlimit="10" x1="202.4" y1="487.6" x2="206.1" y2="491.3"/>
<line fill="none" stroke="#C2B59B" stroke-linecap="round" stroke-linejoin="round" stroke-miterlimit="10" x1="206.1" y1="487.6" x2="209.8" y2="491.3"/>
<line fill="none" stroke="#C2B59B" stroke-linecap="round" stroke-linejoin="round" stroke-miterlimit="10" x1="209.8" y1="487.6" x2="213.4" y2="491.3"/>
<line fill="none" stroke="#C2B59B" stroke-linecap="round" stroke-linejoin="round" stroke-miterlimit="10" x1="213.4" y1="487.6" x2="217.1" y2="491.3"/>
<line fill="none" stroke="#C2B59B" stroke-linecap="round" stroke-linejoin="round" stroke-miterlimit="10" x1="217.1" y1="487.6" x2="220.7" y2="491.3"/>
<line fill="none" stroke="#C2B59B" stroke-linecap="round" stroke-linejoin="round" stroke-miterlimit="10" x1="220.7" y1="487.6" x2="224.4" y2="491.3"/>
<line fill="none" stroke="#C2B59B" stroke-linecap="round" stroke-linejoin="round" stroke-miterlimit="10" x1="224.4" y1="487.6" x2="228.1" y2="491.3"/>
<line fill="none" stroke="#C2B59B" stroke-linecap="round" stroke-linejoin="round" stroke-miterlimit="10" x1="228.1" y1="487.6" x2="231.7" y2="491.3"/>
<line fill="none" stroke="#C2B59B" stroke-linecap="round" stroke-linejoin="round" stroke-miterlimit="10" x1="231.7" y1="487.6" x2="235.4" y2="491.3"/>
<line fill="none" stroke="#C2B59B" stroke-linecap="round" stroke-linejoin="round" stroke-miterlimit="10" x1="235.4" y1="487.6" x2="239.1" y2="491.3"/>
<line fill="none" stroke="#C2B59B" stroke-linecap="round" stroke-linejoin="round" stroke-miterlimit="10" x1="239.1" y1="487.6" x2="242.7" y2="491.3"/>
<line fill="none" stroke="#C2B59B" stroke-linecap="round" stroke-linejoin="round" stroke-miterlimit="10" x1="239.7" y1="483.9" x2="243.4" y2="487.6"/>
<line fill="none" stroke="#C2B59B" stroke-linecap="round" stroke-linejoin="round" stroke-miterlimit="10" x1="239.7" y1="479.5" x2="243.4" y2="483.2"/>
<line fill="none" stroke="#C2B59B" stroke-linecap="round" stroke-linejoin="round" stroke-miterlimit="10" x1="240" y1="475.2" x2="243.7" y2="478.8"/>
<line fill="none" stroke="#C2B59B" stroke-linecap="round" stroke-linejoin="round" stroke-miterlimit="10" x1="240.4" y1="471.1" x2="244" y2="474.8"/>
<line fill="none" stroke="#C2B59B" stroke-linecap="round" stroke-linejoin="round" stroke-miterlimit="10" x1="240.4" y1="467.5" x2="244" y2="471.1"/>
<line fill="none" stroke="#C2B59B" stroke-linecap="round" stroke-linejoin="round" stroke-miterlimit="10" x1="224.8" y1="474.5" x2="228.5" y2="478.1"/>
<line fill="none" stroke="#C2B59B" stroke-linecap="round" stroke-linejoin="round" stroke-miterlimit="10" x1="224.8" y1="470.4" x2="228.5" y2="474"/>
<line fill="none" stroke="#C2B59B" stroke-linecap="round" stroke-linejoin="round" stroke-miterlimit="10" x1="224.8" y1="466.3" x2="228.5" y2="470"/>
<line fill="none" stroke="#C2B59B" stroke-linecap="round" stroke-linejoin="round" stroke-miterlimit="10" x1="224.8" y1="462.2" x2="228.5" y2="465.9"/>
<line fill="none" stroke="#C2B59B" stroke-linecap="round" stroke-linejoin="round" stroke-miterlimit="10" x1="224.8" y1="458.1" x2="228.5" y2="461.8"/>
<line fill="none" stroke="#C2B59B" stroke-linecap="round" stroke-linejoin="round" stroke-miterlimit="10" x1="224.8" y1="454" x2="228.5" y2="457.7"/>
<line fill="none" stroke="#C2B59B" stroke-linecap="round" stroke-linejoin="round" stroke-miterlimit="10" x1="224.8" y1="450" x2="228.5" y2="453.6"/>
<line fill="none" stroke="#C2B59B" stroke-linecap="round" stroke-linejoin="round" stroke-miterlimit="10" x1="223.3" y1="474.6" x2="227" y2="478.3"/>
<line fill="none" stroke="#C2B59B" stroke-linecap="round" stroke-linejoin="round" stroke-miterlimit="10" x1="207.9" y1="464.2" x2="211.6" y2="467.9"/>
<line fill="none" stroke="#C2B59B" stroke-linecap="round" stroke-linejoin="round" stroke-miterlimit="10" x1="207.9" y1="468.4" x2="211.6" y2="472.1"/>
<line fill="none" stroke="#C2B59B" stroke-linecap="round" stroke-linejoin="round" stroke-miterlimit="10" x1="207.9" y1="472.6" x2="211.6" y2="476.3"/>
<line fill="none" stroke="#C2B59B" stroke-linecap="round" stroke-linejoin="round" stroke-miterlimit="10" x1="207.9" y1="477.3" x2="211.6" y2="481"/>
<line fill="none" stroke="#C2B59B" stroke-linecap="round" stroke-linejoin="round" stroke-miterlimit="10" x1="207.9" y1="482.1" x2="211.6" y2="485.8"/>
<line fill="none" stroke="#C2B59B" stroke-linecap="round" stroke-linejoin="round" stroke-miterlimit="10" x1="207.9" y1="442.7" x2="211.6" y2="446.3"/>
<line fill="none" stroke="#C2B59B" stroke-linecap="round" stroke-linejoin="round" stroke-miterlimit="10" x1="182.8" y1="442.2" x2="186.5" y2="445.9"/>
<line fill="none" stroke="#C2B59B" stroke-linecap="round" stroke-linejoin="round" stroke-miterlimit="10" x1="184.7" y1="442.2" x2="188.3" y2="445.9"/>
<line fill="none" stroke="#C2B59B" stroke-linecap="round" stroke-linejoin="round" stroke-miterlimit="10" x1="188.3" y1="444.1" x2="192" y2="447.7"/>
<line fill="none" stroke="#C2B59B" stroke-linecap="round" stroke-linejoin="round" stroke-miterlimit="10" x1="212.5" y1="442.7" x2="216.1" y2="446.3"/>
<line fill="none" stroke="#C2B59B" stroke-linecap="round" stroke-linejoin="round" stroke-miterlimit="10" x1="217.2" y1="442.7" x2="220.8" y2="446.3"/>
<line fill="none" stroke="#C2B59B" stroke-linecap="round" stroke-linejoin="round" stroke-miterlimit="10" x1="221.6" y1="442.7" x2="225.3" y2="446.3"/>
<line fill="none" stroke="#C2B59B" stroke-linecap="round" stroke-linejoin="round" stroke-miterlimit="10" x1="237.9" y1="458" x2="241.5" y2="461.7"/>
<line fill="none" stroke="#C2B59B" stroke-linecap="round" stroke-linejoin="round" stroke-miterlimit="10" x1="239.7" y1="458" x2="243.4" y2="461.7"/>
<line fill="none" stroke="#C2B59B" stroke-linecap="round" stroke-linejoin="round" stroke-miterlimit="10" x1="239.7" y1="453.6" x2="243.4" y2="457.3"/>
<line fill="none" stroke="#C2B59B" stroke-linecap="round" stroke-linejoin="round" stroke-miterlimit="10" x1="239.7" y1="449.2" x2="243.4" y2="452.9"/>
<line fill="none" stroke="#C2B59B" stroke-linecap="round" stroke-linejoin="round" stroke-miterlimit="10" x1="239.7" y1="444.8" x2="243.4" y2="448.4"/>
<line fill="none" stroke="#C2B59B" stroke-linecap="round" stroke-linejoin="round" stroke-miterlimit="10" x1="239.7" y1="440.4" x2="243.4" y2="444"/>
<line fill="none" stroke="#C2B59B" stroke-linecap="round" stroke-linejoin="round" stroke-miterlimit="10" x1="207.9" y1="446.9" x2="211.6" y2="450.5"/>
<line fill="none" stroke="#C2B59B" stroke-linecap="round" stroke-linejoin="round" stroke-miterlimit="10" x1="207.9" y1="451.1" x2="211.6" y2="454.7"/>
<line fill="none" stroke="#C2B59B" stroke-linecap="round" stroke-linejoin="round" stroke-miterlimit="10" x1="207.9" y1="455.7" x2="211.6" y2="459.4"/>
<line fill="none" stroke="#C2B59B" stroke-linecap="round" stroke-linejoin="round" stroke-miterlimit="10" x1="211.3" y1="464.2" x2="215" y2="467.9"/>
<line fill="none" stroke="#C2B59B" stroke-linecap="round" stroke-linejoin="round" stroke-miterlimit="10" x1="215" y1="464.2" x2="218.7" y2="467.9"/>
<line fill="none" stroke="#C2B59B" stroke-linecap="round" stroke-linejoin="round" stroke-miterlimit="10" x1="218.3" y1="467" x2="221.9" y2="470.6"/>
<line fill="none" stroke="#C2B59B" stroke-linecap="round" stroke-linejoin="round" stroke-miterlimit="10" x1="245.7" y1="487.6" x2="249.4" y2="491.3"/>
<line fill="none" stroke="#C2B59B" stroke-linecap="round" stroke-linejoin="round" stroke-miterlimit="10" x1="249.7" y1="487.6" x2="253.4" y2="491.3"/>
<line fill="none" stroke="#C2B59B" stroke-linecap="round" stroke-linejoin="round" stroke-miterlimit="10" x1="253.8" y1="487.6" x2="257.4" y2="491.3"/>
<line fill="none" stroke="#C2B59B" stroke-linecap="round" stroke-linejoin="round" stroke-miterlimit="10" x1="257.4" y1="487.6" x2="261.1" y2="491.3"/>
<line fill="none" stroke="#C2B59B" stroke-linecap="round" stroke-linejoin="round" stroke-miterlimit="10" x1="261.1" y1="487.6" x2="264.8" y2="491.3"/>
<line fill="none" stroke="#C2B59B" stroke-linecap="round" stroke-linejoin="round" stroke-miterlimit="10" x1="264.8" y1="487.6" x2="268.4" y2="491.3"/>
<line fill="none" stroke="#C2B59B" stroke-linecap="round" stroke-linejoin="round" stroke-miterlimit="10" x1="268.4" y1="487.6" x2="272.1" y2="491.3"/>
<line fill="none" stroke="#C2B59B" stroke-linecap="round" stroke-linejoin="round" stroke-miterlimit="10" x1="308.5" y1="487.6" x2="312.1" y2="491.3"/>
<line fill="none" stroke="#C2B59B" stroke-linecap="round" stroke-linejoin="round" stroke-miterlimit="10" x1="312.5" y1="487.6" x2="316.2" y2="491.3"/>
<line fill="none" stroke="#C2B59B" stroke-linecap="round" stroke-linejoin="round" stroke-miterlimit="10" x1="316.5" y1="487.6" x2="320.2" y2="491.3"/>
<line fill="none" stroke="#C2B59B" stroke-linecap="round" stroke-linejoin="round" stroke-miterlimit="10" x1="320.2" y1="487.6" x2="323.8" y2="491.3"/>
<line fill="none" stroke="#C2B59B" stroke-linecap="round" stroke-linejoin="round" stroke-miterlimit="10" x1="323.8" y1="487.6" x2="327.5" y2="491.3"/>
<line fill="none" stroke="#C2B59B" stroke-linecap="round" stroke-linejoin="round" stroke-miterlimit="10" x1="327.5" y1="487.6" x2="331.2" y2="491.3"/>
<line fill="none" stroke="#C2B59B" stroke-linecap="round" stroke-linejoin="round" stroke-miterlimit="10" x1="331.2" y1="487.6" x2="334.8" y2="491.3"/>
<line fill="none" stroke="#C2B59B" stroke-linecap="round" stroke-linejoin="round" stroke-miterlimit="10" x1="335.7" y1="487.6" x2="339.4" y2="491.3"/>
<line fill="none" stroke="#C2B59B" stroke-linecap="round" stroke-linejoin="round" stroke-miterlimit="10" x1="339.4" y1="487.6" x2="343" y2="491.3"/>
<line fill="none" stroke="#C2B59B" stroke-linecap="round" stroke-linejoin="round" stroke-miterlimit="10" x1="341.8" y1="487.6" x2="345.5" y2="491.3"/>
<line fill="none" stroke="#C2B59B" stroke-linecap="round" stroke-linejoin="round" stroke-miterlimit="10" x1="341.8" y1="485.8" x2="345.5" y2="489.4"/>
<line fill="none" stroke="#C2B59B" stroke-linecap="round" stroke-linejoin="round" stroke-miterlimit="10" x1="333" y1="465.6" x2="336.7" y2="469.3"/>
<line fill="none" stroke="#C2B59B" stroke-linecap="round" stroke-linejoin="round" stroke-miterlimit="10" x1="333" y1="469.3" x2="336.7" y2="473"/>
<line fill="none" stroke="#C2B59B" stroke-linecap="round" stroke-linejoin="round" stroke-miterlimit="10" x1="333" y1="473" x2="336.7" y2="476.6"/>
<line fill="none" stroke="#C2B59B" stroke-linecap="round" stroke-linejoin="round" stroke-miterlimit="10" x1="333" y1="477" x2="336.7" y2="480.7"/>
<line fill="none" stroke="#C2B59B" stroke-linecap="round" stroke-linejoin="round" stroke-miterlimit="10" x1="333" y1="442.4" x2="336.7" y2="446.1"/>
<line fill="none" stroke="#C2B59B" stroke-linecap="round" stroke-linejoin="round" stroke-miterlimit="10" x1="308.1" y1="442.1" x2="311.7" y2="445.7"/>
<line fill="none" stroke="#C2B59B" stroke-linecap="round" stroke-linejoin="round" stroke-miterlimit="10" x1="309.9" y1="442.1" x2="313.6" y2="445.7"/>
<line fill="none" stroke="#C2B59B" stroke-linecap="round" stroke-linejoin="round" stroke-miterlimit="10" x1="313.1" y1="443.9" x2="316.7" y2="447.6"/>
<line fill="none" stroke="#C2B59B" stroke-linecap="round" stroke-linejoin="round" stroke-miterlimit="10" x1="337.5" y1="442.4" x2="341.2" y2="446.1"/>
<line fill="none" stroke="#C2B59B" stroke-linecap="round" stroke-linejoin="round" stroke-miterlimit="10" x1="341.8" y1="442.4" x2="345.5" y2="446.1"/>
<line fill="none" stroke="#C2B59B" stroke-linecap="round" stroke-linejoin="round" stroke-miterlimit="10" x1="345.5" y1="442.4" x2="349.1" y2="446.1"/>
<line fill="none" stroke="#C2B59B" stroke-linecap="round" stroke-linejoin="round" stroke-miterlimit="10" x1="350.6" y1="443.4" x2="354.3" y2="447.1"/>
<line fill="none" stroke="#C2B59B" stroke-linecap="round" stroke-linejoin="round" stroke-miterlimit="10" x1="333" y1="446.1" x2="336.7" y2="449.8"/>
<line fill="none" stroke="#C2B59B" stroke-linecap="round" stroke-linejoin="round" stroke-miterlimit="10" x1="333" y1="449.8" x2="336.7" y2="453.4"/>
<line fill="none" stroke="#C2B59B" stroke-linecap="round" stroke-linejoin="round" stroke-miterlimit="10" x1="333" y1="453.8" x2="336.7" y2="457.5"/>
<line fill="none" stroke="#C2B59B" stroke-linecap="round" stroke-linejoin="round" stroke-miterlimit="10" x1="333" y1="458.1" x2="336.7" y2="461.8"/>
<line fill="none" stroke="#C2B59B" stroke-linecap="round" stroke-linejoin="round" stroke-miterlimit="10" x1="335.7" y1="465.6" x2="339.4" y2="469.3"/>
<line fill="none" stroke="#C2B59B" stroke-linecap="round" stroke-linejoin="round" stroke-miterlimit="10" x1="339.4" y1="465.6" x2="343" y2="469.3"/>
<line fill="none" stroke="#C2B59B" stroke-linecap="round" stroke-linejoin="round" stroke-miterlimit="10" x1="355.3" y1="487.6" x2="358.9" y2="491.3"/>
<line fill="none" stroke="#C2B59B" stroke-linecap="round" stroke-linejoin="round" stroke-miterlimit="10" x1="358.9" y1="487.6" x2="362.6" y2="491.3"/>
<line fill="none" stroke="#C2B59B" stroke-linecap="round" stroke-linejoin="round" stroke-miterlimit="10" x1="362.6" y1="487.6" x2="366.3" y2="491.3"/>
<line fill="none" stroke="#C2B59B" stroke-linecap="round" stroke-linejoin="round" stroke-miterlimit="10" x1="366.3" y1="487.6" x2="369.9" y2="491.3"/>
<line fill="none" stroke="#C2B59B" stroke-linecap="round" stroke-linejoin="round" stroke-miterlimit="10" x1="369.9" y1="487.6" x2="373.6" y2="491.3"/>
<line fill="none" stroke="#C2B59B" stroke-linecap="round" stroke-linejoin="round" stroke-miterlimit="10" x1="373.6" y1="487.6" x2="377.3" y2="491.3"/>
<line fill="none" stroke="#C2B59B" stroke-linecap="round" stroke-linejoin="round" stroke-miterlimit="10" x1="377" y1="487.6" x2="380.6" y2="491.3"/>
<line fill="none" stroke="#C2B59B" stroke-linecap="round" stroke-linejoin="round" stroke-miterlimit="10" x1="379.1" y1="487.6" x2="382.7" y2="491.3"/>
<line fill="none" stroke="#C2B59B" stroke-linecap="round" stroke-linejoin="round" stroke-miterlimit="10" x1="379.1" y1="485.8" x2="382.7" y2="489.4"/>
<line fill="none" stroke="#C2B59B" stroke-linecap="round" stroke-linejoin="round" stroke-miterlimit="10" x1="361.5" y1="467.2" x2="365.2" y2="470.9"/>
<line fill="none" stroke="#C2B59B" stroke-linecap="round" stroke-linejoin="round" stroke-miterlimit="10" x1="353.8" y1="465.4" x2="355.6" y2="467.2"/>
<line fill="none" stroke="#C2B59B" stroke-linecap="round" stroke-linejoin="round" stroke-miterlimit="10" x1="357.4" y1="464.8" x2="359.9" y2="467.2"/>
<line fill="none" stroke="#C2B59B" stroke-linecap="round" stroke-linejoin="round" stroke-miterlimit="10" x1="361.5" y1="463.8" x2="365.2" y2="467.5"/>
<line fill="none" stroke="#C2B59B" stroke-linecap="round" stroke-linejoin="round" stroke-miterlimit="10" x1="365.2" y1="462.5" x2="368.8" y2="466.2"/>
<line fill="none" stroke="#C2B59B" stroke-linecap="round" stroke-linejoin="round" stroke-miterlimit="10" x1="368.8" y1="460.2" x2="372.5" y2="463.9"/>
<line fill="none" stroke="#C2B59B" stroke-linecap="round" stroke-linejoin="round" stroke-miterlimit="10" x1="371.4" y1="457" x2="375.1" y2="460.7"/>
<line fill="none" stroke="#C2B59B" stroke-linecap="round" stroke-linejoin="round" stroke-miterlimit="10" x1="372.1" y1="453" x2="375.8" y2="456.7"/>
<line fill="none" stroke="#C2B59B" stroke-linecap="round" stroke-linejoin="round" stroke-miterlimit="10" x1="370.7" y1="448.4" x2="374.3" y2="452"/>
<line fill="none" stroke="#C2B59B" stroke-linecap="round" stroke-linejoin="round" stroke-miterlimit="10" x1="364.1" y1="471.8" x2="367.8" y2="475.5"/>
<line fill="none" stroke="#C2B59B" stroke-linecap="round" stroke-linejoin="round" stroke-miterlimit="10" x1="366.3" y1="475.8" x2="369.9" y2="479.5"/>
<line fill="none" stroke="#C2B59B" stroke-linecap="round" stroke-linejoin="round" stroke-miterlimit="10" x1="272.1" y1="487.6" x2="275.7" y2="491.3"/>
<line fill="none" stroke="#C2B59B" stroke-linecap="round" stroke-linejoin="round" stroke-miterlimit="10" x1="275.7" y1="487.6" x2="279.4" y2="491.3"/>
<line fill="none" stroke="#C2B59B" stroke-linecap="round" stroke-linejoin="round" stroke-miterlimit="10" x1="279.4" y1="487.6" x2="283.1" y2="491.3"/>
<line fill="none" stroke="#C2B59B" stroke-linecap="round" stroke-linejoin="round" stroke-miterlimit="10" x1="283.1" y1="487.6" x2="286.7" y2="491.3"/>
<line fill="none" stroke="#C2B59B" stroke-linecap="round" stroke-linejoin="round" stroke-miterlimit="10" x1="286.7" y1="487.6" x2="290.4" y2="491.3"/>
<line fill="none" stroke="#C2B59B" stroke-linecap="round" stroke-linejoin="round" stroke-miterlimit="10" x1="290.4" y1="487.6" x2="294.1" y2="491.3"/>
<line fill="none" stroke="#C2B59B" stroke-linecap="round" stroke-linejoin="round" stroke-miterlimit="10" x1="294.1" y1="487.6" x2="297.7" y2="491.3"/>
<line fill="none" stroke="#C2B59B" stroke-linecap="round" stroke-linejoin="round" stroke-miterlimit="10" x1="297.7" y1="487.6" x2="301.4" y2="491.3"/>
<line fill="none" stroke="#C2B59B" stroke-linecap="round" stroke-linejoin="round" stroke-miterlimit="10" x1="301.4" y1="487.6" x2="305.1" y2="491.3"/>
<line fill="none" stroke="#C2B59B" stroke-linecap="round" stroke-linejoin="round" stroke-miterlimit="10" x1="302" y1="483.9" x2="305.7" y2="487.6"/>
<line fill="none" stroke="#C2B59B" stroke-linecap="round" stroke-linejoin="round" stroke-miterlimit="10" x1="302" y1="479.5" x2="305.7" y2="483.2"/>
<line fill="none" stroke="#C2B59B" stroke-linecap="round" stroke-linejoin="round" stroke-miterlimit="10" x1="302.3" y1="475.2" x2="306" y2="478.8"/>
<line fill="none" stroke="#C2B59B" stroke-linecap="round" stroke-linejoin="round" stroke-miterlimit="10" x1="302.7" y1="471.1" x2="306.4" y2="474.8"/>
<line fill="none" stroke="#C2B59B" stroke-linecap="round" stroke-linejoin="round" stroke-miterlimit="10" x1="302.7" y1="467.5" x2="306.4" y2="471.1"/>
<line fill="none" stroke="#C2B59B" stroke-linecap="round" stroke-linejoin="round" stroke-miterlimit="10" x1="287.2" y1="474.5" x2="290.8" y2="478.1"/>
<line fill="none" stroke="#C2B59B" stroke-linecap="round" stroke-linejoin="round" stroke-miterlimit="10" x1="287.2" y1="470.4" x2="290.8" y2="474"/>
<line fill="none" stroke="#C2B59B" stroke-linecap="round" stroke-linejoin="round" stroke-miterlimit="10" x1="287.2" y1="466.3" x2="290.8" y2="470"/>
<line fill="none" stroke="#C2B59B" stroke-linecap="round" stroke-linejoin="round" stroke-miterlimit="10" x1="287.2" y1="462.2" x2="290.8" y2="465.9"/>
<line fill="none" stroke="#C2B59B" stroke-linecap="round" stroke-linejoin="round" stroke-miterlimit="10" x1="287.2" y1="458.1" x2="290.8" y2="461.8"/>
<line fill="none" stroke="#C2B59B" stroke-linecap="round" stroke-linejoin="round" stroke-miterlimit="10" x1="287.2" y1="454" x2="290.8" y2="457.7"/>
<line fill="none" stroke="#C2B59B" stroke-linecap="round" stroke-linejoin="round" stroke-miterlimit="10" x1="287.2" y1="450" x2="290.8" y2="453.6"/>
<line fill="none" stroke="#C2B59B" stroke-linecap="round" stroke-linejoin="round" stroke-miterlimit="10" x1="285.6" y1="474.6" x2="289.3" y2="478.3"/>
<line fill="none" stroke="#C2B59B" stroke-linecap="round" stroke-linejoin="round" stroke-miterlimit="10" x1="270.3" y1="464.2" x2="273.9" y2="467.9"/>
<line fill="none" stroke="#C2B59B" stroke-linecap="round" stroke-linejoin="round" stroke-miterlimit="10" x1="270.3" y1="468.4" x2="273.9" y2="472.1"/>
<line fill="none" stroke="#C2B59B" stroke-linecap="round" stroke-linejoin="round" stroke-miterlimit="10" x1="270.3" y1="472.6" x2="273.9" y2="476.3"/>
<line fill="none" stroke="#C2B59B" stroke-linecap="round" stroke-linejoin="round" stroke-miterlimit="10" x1="270.3" y1="477.3" x2="273.9" y2="481"/>
<line fill="none" stroke="#C2B59B" stroke-linecap="round" stroke-linejoin="round" stroke-miterlimit="10" x1="270.3" y1="482.1" x2="273.9" y2="485.8"/>
<line fill="none" stroke="#C2B59B" stroke-linecap="round" stroke-linejoin="round" stroke-miterlimit="10" x1="270.3" y1="442.7" x2="273.9" y2="446.3"/>
<line fill="none" stroke="#C2B59B" stroke-linecap="round" stroke-linejoin="round" stroke-miterlimit="10" x1="245.2" y1="442.2" x2="248.8" y2="445.9"/>
<line fill="none" stroke="#C2B59B" stroke-linecap="round" stroke-linejoin="round" stroke-miterlimit="10" x1="247" y1="442.2" x2="250.7" y2="445.9"/>
<line fill="none" stroke="#C2B59B" stroke-linecap="round" stroke-linejoin="round" stroke-miterlimit="10" x1="250.7" y1="444.1" x2="254.3" y2="447.7"/>
<line fill="none" stroke="#C2B59B" stroke-linecap="round" stroke-linejoin="round" stroke-miterlimit="10" x1="274.8" y1="442.7" x2="278.5" y2="446.3"/>
<line fill="none" stroke="#C2B59B" stroke-linecap="round" stroke-linejoin="round" stroke-miterlimit="10" x1="279.5" y1="442.7" x2="283.2" y2="446.3"/>
<line fill="none" stroke="#C2B59B" stroke-linecap="round" stroke-linejoin="round" stroke-miterlimit="10" x1="283.9" y1="442.7" x2="287.6" y2="446.3"/>
<line fill="none" stroke="#C2B59B" stroke-linecap="round" stroke-linejoin="round" stroke-miterlimit="10" x1="300.2" y1="458" x2="303.9" y2="461.7"/>
<line fill="none" stroke="#C2B59B" stroke-linecap="round" stroke-linejoin="round" stroke-miterlimit="10" x1="302" y1="458" x2="305.7" y2="461.7"/>
<line fill="none" stroke="#C2B59B" stroke-linecap="round" stroke-linejoin="round" stroke-miterlimit="10" x1="302" y1="453.6" x2="305.7" y2="457.3"/>
<line fill="none" stroke="#C2B59B" stroke-linecap="round" stroke-linejoin="round" stroke-miterlimit="10" x1="302" y1="449.2" x2="305.7" y2="452.9"/>
<line fill="none" stroke="#C2B59B" stroke-linecap="round" stroke-linejoin="round" stroke-miterlimit="10" x1="302" y1="444.8" x2="305.7" y2="448.4"/>
<line fill="none" stroke="#C2B59B" stroke-linecap="round" stroke-linejoin="round" stroke-miterlimit="10" x1="302" y1="440.4" x2="305.7" y2="444"/>
<line fill="none" stroke="#C2B59B" stroke-linecap="round" stroke-linejoin="round" stroke-miterlimit="10" x1="270.3" y1="446.9" x2="273.9" y2="450.5"/>
<line fill="none" stroke="#C2B59B" stroke-linecap="round" stroke-linejoin="round" stroke-miterlimit="10" x1="270.3" y1="451.1" x2="273.9" y2="454.7"/>
<line fill="none" stroke="#C2B59B" stroke-linecap="round" stroke-linejoin="round" stroke-miterlimit="10" x1="270.3" y1="455.7" x2="273.9" y2="459.4"/>
<line fill="none" stroke="#C2B59B" stroke-linecap="round" stroke-linejoin="round" stroke-miterlimit="10" x1="273.7" y1="464.2" x2="277.3" y2="467.9"/>
<line fill="none" stroke="#C2B59B" stroke-linecap="round" stroke-linejoin="round" stroke-miterlimit="10" x1="277.3" y1="464.2" x2="281" y2="467.9"/>
<line fill="none" stroke="#C2B59B" stroke-linecap="round" stroke-linejoin="round" stroke-miterlimit="10" x1="280.6" y1="467" x2="284.3" y2="470.6"/>
<line fill="none" stroke="#C2B59B" stroke-linecap="round" stroke-linejoin="round" stroke-miterlimit="10" x1="152.9" y1="487.6" x2="156.6" y2="491.3"/>
<line fill="none" stroke="#C2B59B" stroke-linecap="round" stroke-linejoin="round" stroke-miterlimit="10" x1="156.6" y1="487.6" x2="160.2" y2="491.3"/>
<line fill="none" stroke="#C2B59B" stroke-linecap="round" stroke-linejoin="round" stroke-miterlimit="10" x1="160.2" y1="487.6" x2="163.9" y2="491.3"/>
<line fill="none" stroke="#C2B59B" stroke-linecap="round" stroke-linejoin="round" stroke-miterlimit="10" x1="163.4" y1="486.7" x2="167.1" y2="490.4"/>
<line fill="none" stroke="#C2B59B" stroke-linecap="round" stroke-linejoin="round" stroke-miterlimit="10" x1="167.1" y1="485.8" x2="170.7" y2="489.4"/>
<line fill="none" stroke="#C2B59B" stroke-linecap="round" stroke-linejoin="round" stroke-miterlimit="10" x1="170.3" y1="484.4" x2="174" y2="488.1"/>
<line fill="none" stroke="#C2B59B" stroke-linecap="round" stroke-linejoin="round" stroke-miterlimit="10" x1="173.6" y1="482.6" x2="177.2" y2="486.3"/>
<line fill="none" stroke="#C2B59B" stroke-linecap="round" stroke-linejoin="round" stroke-miterlimit="10" x1="176.5" y1="480" x2="180.1" y2="483.7"/>
<line fill="none" stroke="#C2B59B" stroke-linecap="round" stroke-linejoin="round" stroke-miterlimit="10" x1="178.3" y1="476" x2="181.9" y2="479.7"/>
<line fill="none" stroke="#C2B59B" stroke-linecap="round" stroke-linejoin="round" stroke-miterlimit="10" x1="178.3" y1="472.1" x2="181.9" y2="475.8"/>
<line fill="none" stroke="#C2B59B" stroke-linecap="round" stroke-linejoin="round" stroke-miterlimit="10" x1="175.2" y1="468.4" x2="178.9" y2="472.1"/>
<line fill="none" stroke="#C2B59B" stroke-linecap="round" stroke-linejoin="round" stroke-miterlimit="10" x1="166.3" y1="462.1" x2="169.4" y2="465.2"/>
<line fill="none" stroke="#C2B59B" stroke-linecap="round" stroke-linejoin="round" stroke-miterlimit="10" x1="169.4" y1="460.8" x2="173.1" y2="464.5"/>
<line fill="none" stroke="#C2B59B" stroke-linecap="round" stroke-linejoin="round" stroke-miterlimit="10" x1="172.8" y1="459" x2="176.5" y2="462.6"/>
<line fill="none" stroke="#C2B59B" stroke-linecap="round" stroke-linejoin="round" stroke-miterlimit="10" x1="175.4" y1="456.4" x2="179.1" y2="460.1"/>
<line fill="none" stroke="#C2B59B" stroke-linecap="round" stroke-linejoin="round" stroke-miterlimit="10" x1="176.8" y1="452.7" x2="180.4" y2="456.4"/>
<line fill="none" stroke="#C2B59B" stroke-linecap="round" stroke-linejoin="round" stroke-miterlimit="10" x1="174.6" y1="447.2" x2="178.3" y2="450.9"/>
<line fill="none" stroke="#C2B59B" stroke-linecap="round" stroke-linejoin="round" stroke-miterlimit="10" x1="140.3" y1="442.4" x2="144" y2="446.1"/>
<line fill="none" stroke="#C2B59B" stroke-linecap="round" stroke-linejoin="round" stroke-miterlimit="10" x1="140.3" y1="446.7" x2="144" y2="450.4"/>
<line fill="none" stroke="#C2B59B" stroke-linecap="round" stroke-linejoin="round" stroke-miterlimit="10" x1="140.3" y1="450.9" x2="144" y2="454.6"/>
<line fill="none" stroke="#C2B59B" stroke-linecap="round" stroke-linejoin="round" stroke-miterlimit="10" x1="140.3" y1="455.3" x2="144" y2="459"/>
<line fill="none" stroke="#C2B59B" stroke-linecap="round" stroke-linejoin="round" stroke-miterlimit="10" x1="140.3" y1="459.7" x2="142.7" y2="462.1"/>
<line fill="none" stroke="#C2B59B" stroke-linecap="round" stroke-linejoin="round" stroke-miterlimit="10" x1="140.3" y1="464.3" x2="144" y2="468"/>
<line fill="none" stroke="#C2B59B" stroke-linecap="round" stroke-linejoin="round" stroke-miterlimit="10" x1="144.6" y1="464.3" x2="148.2" y2="468"/>
<line fill="none" stroke="#C2B59B" stroke-linecap="round" stroke-linejoin="round" stroke-miterlimit="10" x1="149" y1="464.3" x2="152.7" y2="468"/>
<line fill="none" stroke="#C2B59B" stroke-linecap="round" stroke-linejoin="round" stroke-miterlimit="10" x1="153.7" y1="464.3" x2="157.3" y2="468"/>
<line fill="none" stroke="#C2B59B" stroke-linecap="round" stroke-linejoin="round" stroke-miterlimit="10" x1="140.3" y1="468.6" x2="144" y2="472.2"/>
<line fill="none" stroke="#C2B59B" stroke-linecap="round" stroke-linejoin="round" stroke-miterlimit="10" x1="140.3" y1="473" x2="144" y2="476.6"/>
<line fill="none" stroke="#C2B59B" stroke-linecap="round" stroke-linejoin="round" stroke-miterlimit="10" x1="140.3" y1="477.3" x2="144" y2="481"/>
<line fill="none" stroke="#C2B59B" stroke-linecap="round" stroke-linejoin="round" stroke-miterlimit="10" x1="140.3" y1="482.1" x2="143.5" y2="485.3"/>
<line fill="none" stroke="#C2B59B" stroke-linecap="round" stroke-linejoin="round" stroke-miterlimit="10" x1="115.5" y1="442.4" x2="118.7" y2="445.6"/>
<line fill="none" stroke="#C2B59B" stroke-linecap="round" stroke-linejoin="round" stroke-miterlimit="10" x1="118.7" y1="443.3" x2="121.9" y2="446.4"/>
<line fill="none" stroke="#C2B59B" stroke-linecap="round" stroke-linejoin="round" stroke-miterlimit="10" x1="145.1" y1="442.4" x2="148.7" y2="446.1"/>
<line fill="none" stroke="#C2B59B" stroke-linecap="round" stroke-linejoin="round" stroke-miterlimit="10" x1="149.8" y1="442.4" x2="153.4" y2="446.1"/>
<line fill="none" stroke="#C2B59B" stroke-linecap="round" stroke-linejoin="round" stroke-miterlimit="10" x1="154.4" y1="443" x2="158" y2="446.7"/>
<line fill="none" stroke="#C2B59B" stroke-linecap="round" stroke-linejoin="round" stroke-miterlimit="10" x1="131.6" y1="445.9" x2="131.6" y2="482.2"/>
<line fill="none" stroke="#C2B59B" stroke-linecap="round" stroke-linejoin="round" stroke-miterlimit="10" x1="200.6" y1="445.9" x2="200.6" y2="482.2"/>
<line fill="none" stroke="#C2B59B" stroke-linecap="round" stroke-linejoin="round" stroke-miterlimit="10" x1="262.9" y1="445.9" x2="262.9" y2="482.2"/>
<line fill="none" stroke="#C2B59B" stroke-linecap="round" stroke-linejoin="round" stroke-miterlimit="10" x1="323.8" y1="445.9" x2="323.8" y2="482.2"/>
<path fill="none" stroke="#C2B59B" stroke-linecap="round" stroke-linejoin="round" stroke-miterlimit="10" d="M166.6,468.8
	c0,0,2.6,1.8,2.6,6.4s-2.6,6.9-2.6,6.9"/>
<path fill="none" stroke="#C2B59B" stroke-linecap="round" stroke-linejoin="round" stroke-miterlimit="10" d="M166.6,447
	c0,0,2.1,1.4,2.1,5c0,3.6-2.1,5.5-2.1,5.5"/>
<path fill="none" stroke="#C2B59B" stroke-linecap="round" stroke-linejoin="round" stroke-miterlimit="10" d="M361.6,447
	c0,0,2.1,1.4,2.1,5c0,3.6-2.1,5.5-2.1,5.5"/>
<line fill="none" stroke="#C2B59B" stroke-linecap="round" stroke-linejoin="round" stroke-miterlimit="10" x1="355.6" y1="473" x2="359.9" y2="481.3"/>
<polygon fill="none" stroke="#C2B59B" stroke-linecap="round" stroke-linejoin="round" stroke-miterlimit="10" points="245.9,99.6 
	251.1,115.8 268.1,115.8 254.3,125.8 259.6,141.9 245.9,131.9 232.1,141.9 237.4,125.8 223.6,115.8 240.6,115.8 "/>
<line fill="none" stroke="#C2B59B" stroke-linecap="round" stroke-linejoin="round" stroke-miterlimit="10" x1="232.1" y1="141.9" x2="251.1" y2="115.8"/>
<line fill="none" stroke="#C2B59B" stroke-linecap="round" stroke-linejoin="round" stroke-miterlimit="10" x1="259.6" y1="141.9" x2="240.6" y2="115.8"/>
<line fill="none" stroke="#C2B59B" stroke-linecap="round" stroke-linejoin="round" stroke-miterlimit="10" x1="223.6" y1="115.8" x2="254.3" y2="125.8"/>
<line fill="none" stroke="#C2B59B" stroke-linecap="round" stroke-linejoin="round" stroke-miterlimit="10" x1="245.9" y1="99.6" x2="245.9" y2="131.9"/>
<line fill="none" stroke="#C2B59B" stroke-linecap="round" stroke-linejoin="round" stroke-miterlimit="10" x1="268.1" y1="115.8" x2="237.4" y2="125.8"/>
<line fill="none" stroke="#C2B59B" stroke-linecap="round" stroke-linejoin="round" stroke-miterlimit="10" x1="243.6" y1="126" x2="246" y2="128.4"/>
<line fill="none" stroke="#C2B59B" stroke-linecap="round" stroke-linejoin="round" stroke-miterlimit="10" x1="242" y1="128" x2="245.7" y2="131.6"/>
<line fill="none" stroke="#C2B59B" stroke-linecap="round" stroke-linejoin="round" stroke-miterlimit="10" x1="240.6" y1="130.2" x2="243.8" y2="133.5"/>
<line fill="none" stroke="#C2B59B" stroke-linecap="round" stroke-linejoin="round" stroke-miterlimit="10" x1="238.5" y1="133.2" x2="240.8" y2="135.5"/>
<line fill="none" stroke="#C2B59B" stroke-linecap="round" stroke-linejoin="round" stroke-miterlimit="10" x1="236.8" y1="135.5" x2="238.5" y2="137.3"/>
<line fill="none" stroke="#C2B59B" stroke-linecap="round" stroke-linejoin="round" stroke-miterlimit="10" x1="234.8" y1="138.2" x2="235.8" y2="139.2"/>
<line fill="none" stroke="#C2B59B" stroke-linecap="round" stroke-linejoin="round" stroke-miterlimit="10" x1="247.1" y1="123.3" x2="256.5" y2="132.6"/>
<line fill="none" stroke="#C2B59B" stroke-linecap="round" stroke-linejoin="round" stroke-miterlimit="10" x1="260.9" y1="118.1" x2="262.6" y2="119.8"/>
<line fill="none" stroke="#C2B59B" stroke-linecap="round" stroke-linejoin="round" stroke-miterlimit="10" x1="256.5" y1="119.5" x2="259.2" y2="122.3"/>
<line fill="none" stroke="#C2B59B" stroke-linecap="round" stroke-linejoin="round" stroke-miterlimit="10" x1="253.3" y1="120.5" x2="257" y2="124.1"/>
<line fill="none" stroke="#C2B59B" stroke-linecap="round" stroke-linejoin="round" stroke-miterlimit="10" x1="249.6" y1="122.1" x2="252.6" y2="125.1"/>
<line fill="none" stroke="#C2B59B" stroke-linecap="round" stroke-linejoin="round" stroke-miterlimit="10" x1="246" y1="107" x2="249.3" y2="110.4"/>
<line fill="none" stroke="#C2B59B" stroke-linecap="round" stroke-linejoin="round" stroke-miterlimit="10" x1="246" y1="111" x2="250.6" y2="115.6"/>
<line fill="none" stroke="#C2B59B" stroke-linecap="round" stroke-linejoin="round" stroke-miterlimit="10" x1="245.9" y1="115.8" x2="248.8" y2="118.8"/>
<polygon fill="none" stroke="#C2B59B" stroke-linecap="round" stroke-linejoin="round" stroke-miterlimit="10" points="88.1,330 
	92.5,343.7 106.9,343.7 95.3,352.1 99.7,365.8 88.1,357.4 76.5,365.8 80.9,352.1 69.3,343.7 83.7,343.7 "/>
<line fill="none" stroke="#C2B59B" stroke-linecap="round" stroke-linejoin="round" stroke-miterlimit="10" x1="76.5" y1="365.8" x2="92.5" y2="343.7"/>
<line fill="none" stroke="#C2B59B" stroke-linecap="round" stroke-linejoin="round" stroke-miterlimit="10" x1="99.7" y1="365.8" x2="83.7" y2="343.7"/>
<line fill="none" stroke="#C2B59B" stroke-linecap="round" stroke-linejoin="round" stroke-miterlimit="10" x1="69.3" y1="343.7" x2="95.3" y2="352.1"/>
<line fill="none" stroke="#C2B59B" stroke-linecap="round" stroke-linejoin="round" stroke-miterlimit="10" x1="88.1" y1="330" x2="88.1" y2="357.4"/>
<line fill="none" stroke="#C2B59B" stroke-linecap="round" stroke-linejoin="round" stroke-miterlimit="10" x1="106.9" y1="343.7" x2="80.9" y2="352.1"/>
<line fill="none" stroke="#C2B59B" stroke-linecap="round" stroke-linejoin="round" stroke-miterlimit="10" x1="86.2" y1="352.4" x2="88.2" y2="354.4"/>
<line fill="none" stroke="#C2B59B" stroke-linecap="round" stroke-linejoin="round" stroke-miterlimit="10" x1="84.9" y1="354" x2="87.9" y2="357.1"/>
<line fill="none" stroke="#C2B59B" stroke-linecap="round" stroke-linejoin="round" stroke-miterlimit="10" x1="83.7" y1="355.9" x2="86.4" y2="358.6"/>
<line fill="none" stroke="#C2B59B" stroke-linecap="round" stroke-linejoin="round" stroke-miterlimit="10" x1="81.8" y1="358.4" x2="83.8" y2="360.4"/>
<line fill="none" stroke="#C2B59B" stroke-linecap="round" stroke-linejoin="round" stroke-miterlimit="10" x1="80.4" y1="360.4" x2="81.9" y2="361.9"/>
<line fill="none" stroke="#C2B59B" stroke-linecap="round" stroke-linejoin="round" stroke-miterlimit="10" x1="78.7" y1="362.7" x2="79.6" y2="363.5"/>
<line fill="none" stroke="#C2B59B" stroke-linecap="round" stroke-linejoin="round" stroke-miterlimit="10" x1="89.2" y1="350" x2="97.1" y2="357.9"/>
<line fill="none" stroke="#C2B59B" stroke-linecap="round" stroke-linejoin="round" stroke-miterlimit="10" x1="100.8" y1="345.7" x2="102.2" y2="347.1"/>
<line fill="none" stroke="#C2B59B" stroke-linecap="round" stroke-linejoin="round" stroke-miterlimit="10" x1="97.1" y1="346.9" x2="99.4" y2="349.2"/>
<line fill="none" stroke="#C2B59B" stroke-linecap="round" stroke-linejoin="round" stroke-miterlimit="10" x1="94.4" y1="347.7" x2="97.5" y2="350.8"/>
<line fill="none" stroke="#C2B59B" stroke-linecap="round" stroke-linejoin="round" stroke-miterlimit="10" x1="91.3" y1="349" x2="93.8" y2="351.5"/>
<line fill="none" stroke="#C2B59B" stroke-linecap="round" stroke-linejoin="round" stroke-miterlimit="10" x1="88.2" y1="336.3" x2="91" y2="339.2"/>
<line fill="none" stroke="#C2B59B" stroke-linecap="round" stroke-linejoin="round" stroke-miterlimit="10" x1="88.2" y1="339.6" x2="92.1" y2="343.6"/>
<line fill="none" stroke="#C2B59B" stroke-linecap="round" stroke-linejoin="round" stroke-miterlimit="10" x1="88.1" y1="343.7" x2="90.6" y2="346.2"/>
<polygon fill="none" stroke="#C2B59B" stroke-linecap="round" stroke-linejoin="round" stroke-miterlimit="10" points="396.9,330 
	401.3,343.7 415.7,343.7 404.1,352.1 408.5,365.8 396.9,357.4 385.3,365.8 389.7,352.1 378.1,343.7 392.5,343.7 "/>
<line fill="none" stroke="#C2B59B" stroke-linecap="round" stroke-linejoin="round" stroke-miterlimit="10" x1="385.3" y1="365.8" x2="401.3" y2="343.7"/>
<line fill="none" stroke="#C2B59B" stroke-linecap="round" stroke-linejoin="round" stroke-miterlimit="10" x1="408.5" y1="365.8" x2="392.5" y2="343.7"/>
<line fill="none" stroke="#C2B59B" stroke-linecap="round" stroke-linejoin="round" stroke-miterlimit="10" x1="378.1" y1="343.7" x2="404.1" y2="352.1"/>
<line fill="none" stroke="#C2B59B" stroke-linecap="round" stroke-linejoin="round" stroke-miterlimit="10" x1="396.9" y1="330" x2="396.9" y2="357.4"/>
<line fill="none" stroke="#C2B59B" stroke-linecap="round" stroke-linejoin="round" stroke-miterlimit="10" x1="415.7" y1="343.7" x2="389.7" y2="352.1"/>
<line fill="none" stroke="#C2B59B" stroke-linecap="round" stroke-linejoin="round" stroke-miterlimit="10" x1="395" y1="352.4" x2="397" y2="354.4"/>
<line fill="none" stroke="#C2B59B" stroke-linecap="round" stroke-linejoin="round" stroke-miterlimit="10" x1="393.7" y1="354" x2="396.7" y2="357.1"/>
<line fill="none" stroke="#C2B59B" stroke-linecap="round" stroke-linejoin="round" stroke-miterlimit="10" x1="392.5" y1="355.9" x2="395.2" y2="358.6"/>
<line fill="none" stroke="#C2B59B" stroke-linecap="round" stroke-linejoin="round" stroke-miterlimit="10" x1="390.7" y1="358.4" x2="392.7" y2="360.4"/>
<line fill="none" stroke="#C2B59B" stroke-linecap="round" stroke-linejoin="round" stroke-miterlimit="10" x1="389.2" y1="360.4" x2="390.7" y2="361.9"/>
<line fill="none" stroke="#C2B59B" stroke-linecap="round" stroke-linejoin="round" stroke-miterlimit="10" x1="387.6" y1="362.7" x2="388.4" y2="363.5"/>
<line fill="none" stroke="#C2B59B" stroke-linecap="round" stroke-linejoin="round" stroke-miterlimit="10" x1="398" y1="350" x2="405.9" y2="357.9"/>
<line fill="none" stroke="#C2B59B" stroke-linecap="round" stroke-linejoin="round" stroke-miterlimit="10" x1="409.6" y1="345.7" x2="411.1" y2="347.1"/>
<line fill="none" stroke="#C2B59B" stroke-linecap="round" stroke-linejoin="round" stroke-miterlimit="10" x1="405.9" y1="346.9" x2="408.2" y2="349.2"/>
<line fill="none" stroke="#C2B59B" stroke-linecap="round" stroke-linejoin="round" stroke-miterlimit="10" x1="403.2" y1="347.7" x2="406.3" y2="350.8"/>
<line fill="none" stroke="#C2B59B" stroke-linecap="round" stroke-linejoin="round" stroke-miterlimit="10" x1="400.1" y1="349" x2="402.6" y2="351.5"/>
<line fill="none" stroke="#C2B59B" stroke-linecap="round" stroke-linejoin="round" stroke-miterlimit="10" x1="397" y1="336.3" x2="399.9" y2="339.2"/>
<line fill="none" stroke="#C2B59B" stroke-linecap="round" stroke-linejoin="round" stroke-miterlimit="10" x1="397" y1="339.6" x2="400.9" y2="343.6"/>
<line fill="none" stroke="#C2B59B" stroke-linecap="round" stroke-linejoin="round" stroke-miterlimit="10" x1="396.9" y1="343.7" x2="399.4" y2="346.2"/>
</svg>
