<?xml version="1.0" encoding="utf-8"?>
<!-- Generator: Adobe Illustrator 17.1.0, SVG Export Plug-In . SVG Version: 6.00 Build 0)  -->
<!DOCTYPE svg PUBLIC "-//W3C//DTD SVG 1.1//EN" "http://www.w3.org/Graphics/SVG/1.1/DTD/svg11.dtd">
<svg version="1.1" id="Layer_1" xmlns="http://www.w3.org/2000/svg" xmlns:xlink="http://www.w3.org/1999/xlink" x="0px" y="0px"
	 viewBox="0 0 17.9 22.2" enable-background="new 0 0 17.9 22.2" xml:space="preserve">
<g>
	<path fill="none" stroke="#C2B59B" stroke-linecap="round" stroke-linejoin="round" stroke-miterlimit="10" d="M12.1,18.2
		c0,0-0.6,0.1,1.2-0.2s3.3,0.9,3.3,0.9s-2.2-0.2-3.9,1.3C11,21.8,9,21.7,9,21.7"/>
	<path fill="none" stroke="#C2B59B" stroke-linecap="round" stroke-linejoin="round" stroke-miterlimit="10" d="M15.5,17.5
		c0.7-1.8,0.5-3.5,0.9-4.3c0.4-0.7,1-1.8,1-1.8s-3.9,2.2-5.4,4.8"/>
	<path fill="none" stroke="#C2B59B" stroke-linecap="round" stroke-linejoin="round" stroke-miterlimit="10" d="M13.9,10.3l2.3-1.8
		c0,0-0.8,1.9-0.5,4"/>
	<path fill="none" stroke="#C2B59B" stroke-linecap="round" stroke-linejoin="round" stroke-miterlimit="10" d="M13.5,6.6L15,4.8
		c0,0,0.2,3.2,0.5,4.3"/>
	<path fill="none" stroke="#C2B59B" stroke-linecap="round" stroke-linejoin="round" stroke-miterlimit="10" d="M10.6,4.7l0.7-2.6
		c0,0,2.4,2,2.7,3.6"/>
	<path fill="none" stroke="#C2B59B" stroke-linecap="round" stroke-linejoin="round" stroke-miterlimit="10" d="M10.5,11.6l1.9-3.1
		c0,0,1.6,0.9,2,4.6"/>
	<path fill="none" stroke="#C2B59B" stroke-linecap="round" stroke-linejoin="round" stroke-miterlimit="10" d="M10.8,8.5l1.5-3.7
		c0,0,2.4,3.1,2.1,5.1"/>
	<path fill="none" stroke="#C2B59B" stroke-linecap="round" stroke-linejoin="round" stroke-miterlimit="10" d="M7.8,20.5
		c0,0,0.2-1.1,1.2-2.1s1.9-3,1.9-3s2,2.7,0.5,4.1"/>
	<path fill="none" stroke="#C2B59B" stroke-linecap="round" stroke-linejoin="round" stroke-miterlimit="10" d="M2.7,18.3
		c-0.6-1.8-0.8-4.6-1.2-5.3s-1-1.8-1-1.8s3.8,2.3,5.3,4.9"/>
	<path fill="none" stroke="#C2B59B" stroke-linecap="round" stroke-linejoin="round" stroke-miterlimit="10" d="M4,10.2L1.7,8.3
		c0,0,0.7,1.9,0.4,4"/>
	<path fill="none" stroke="#C2B59B" stroke-linecap="round" stroke-linejoin="round" stroke-miterlimit="10" d="M4.5,6.4L3.1,4.6
		c0,0-0.3,3.2-0.6,4.3"/>
	<path fill="none" stroke="#C2B59B" stroke-linecap="round" stroke-linejoin="round" stroke-miterlimit="10" d="M7.5,4.7L6.8,2.1
		c0,0-2.4,2-2.8,3.5"/>
	<path fill="none" stroke="#C2B59B" stroke-linecap="round" stroke-linejoin="round" stroke-miterlimit="10" d="M7.4,11.5L5.5,8.4
		c0,0-1.6,0.9-2.1,4.5"/>
	<path fill="none" stroke="#C2B59B" stroke-linecap="round" stroke-linejoin="round" stroke-miterlimit="10" d="M7.3,8.2L5.8,4.7
		c0,0-2.4,3-2.3,5.1"/>
	<path fill="none" stroke="#C2B59B" stroke-linecap="round" stroke-linejoin="round" stroke-miterlimit="10" d="M5.8,16.2
		c-0.5-3.7,3.3-5.7,3.3-5.7l-0.2,0c0,0,3.7,2.2,3.1,5.8"/>
	<path fill="none" stroke="#C2B59B" stroke-linecap="round" stroke-linejoin="round" stroke-miterlimit="10" d="M6.3,9.8
		c0.2-0.7,2.1-3.2,2.5-3.2l0.3,0c0.4,0,2.3,2.6,2.4,3.3"/>
	<path fill="none" stroke="#C2B59B" stroke-linecap="round" stroke-linejoin="round" stroke-miterlimit="10" d="M6.6,6.5
		c0,0,1.8-2.9,2.3-2.9l0.3,0c0.5,0,2.2,2.9,2.2,2.9"/>
	<polyline fill="none" stroke="#C2B59B" stroke-linecap="round" stroke-linejoin="round" stroke-miterlimit="10" points="11.1,3 
		9.3,0.5 7,3 	"/>
	<path fill="none" stroke="#C2B59B" stroke-linecap="round" stroke-linejoin="round" stroke-miterlimit="10" d="M7.8,21.7
		c-0.4-0.5-1.6-0.6-2.3-1.2S3.7,18.8,3,18.8c-0.7,0-1.7,0-1.7,0s2.3-0.8,3.8-0.5"/>
	<path fill="none" stroke="#C2B59B" stroke-linecap="round" stroke-linejoin="round" stroke-miterlimit="10" d="M8.8,18.5
		c0,0-2-1.4-2.1-2.3c-0.8,0.7-1.2,2-1.2,3.6"/>
</g>
</svg>
